<svg xmlns="http://www.w3.org/2000/svg" xmlns:xlink="http://www.w3.org/1999/xlink" width="50" zoomAndPan="magnify" viewBox="0 0 37.5 37.499999" height="50" preserveAspectRatio="xMidYMid meet" version="1.0"><defs><clipPath id="id1"><path d="M 0 0 L 37.007812 0 L 37.007812 29 L 0 29 Z M 0 0 " clip-rule="nonzero"/></clipPath><clipPath id="id2"><path d="M 0 1 L 37.007812 1 L 37.007812 36 L 0 36 Z M 0 1 " clip-rule="nonzero"/></clipPath><clipPath id="id3"><path d="M 0 9 L 37.007812 9 L 37.007812 37.007812 L 0 37.007812 Z M 0 9 " clip-rule="nonzero"/></clipPath></defs><g clip-path="url(#id1)"><path stroke-linecap="round" transform="matrix(2.999993, 0.00650966, -0.00650966, 2.999993, 3.752441, 11.152359)" fill="none" stroke-linejoin="miter" d="M 0.50049 0.000210932 L 9.500512 0.00021315 " stroke="rgb(6.269836%, 4.708862%, 3.138733%)" stroke-width="1" stroke-opacity="1" stroke-miterlimit="4"/></g><g clip-path="url(#id2)"><path stroke-linecap="round" transform="matrix(2.999993, 0.00650966, -0.00650966, 2.999993, 3.747559, 18.717449)" fill="none" stroke-linejoin="miter" d="M 0.499514 0.000651745 L 9.499533 -0.000648117 " stroke="rgb(6.269836%, 4.708862%, 3.138733%)" stroke-width="1" stroke-opacity="1" stroke-miterlimit="4"/></g><g clip-path="url(#id3)"><path stroke-linecap="round" transform="matrix(2.999993, 0.00650966, -0.00650966, 2.999993, 3.752441, 26.28254)" fill="none" stroke-linejoin="miter" d="M 0.500489 -0.000214078 L 9.500511 -0.000211859 " stroke="rgb(6.269836%, 4.708862%, 3.138733%)" stroke-width="1" stroke-opacity="1" stroke-miterlimit="4"/></g></svg>